<svg xmlns="http://www.w3.org/2000/svg" viewBox="0 0 512 512">
  <rect width="512" height="512" rx="112" fill="#147a92"/>
  <path d="M256 92c-70 0-126 57-126 127 0 104 126 201 126 201s126-97 126-201c0-70-56-127-126-127Z" fill="#ffffff"/>
  <path d="M232 165c-47 20-66 69-43 112 14 26 40 42 68 43-22-31-24-72-4-106 8-14 19-26 32-35-17-17-34-20-53-14Z" fill="#4dc5ba"/>
  <path d="M282 157c-8 42-34 81-73 108 27 18 63 17 90-5 34-28 40-77 13-112-9-11-19-18-30-25Z" fill="#83d7ef"/>
  <circle cx="256" cy="219" r="14" fill="#147a92"/>
</svg>

